<svg width="30" height="30" viewBox="0 0 30 30" fill="none" xmlns="http://www.w3.org/2000/svg">
<g id="uil:apple">
<path id="Vector" d="M19.2468 4.4657C19.7669 3.85573 20.1634 3.14723 20.4136 2.38087C20.6639 1.61452 20.7629 0.805405 20.705 0C19.1084 0.131153 17.6264 0.895319 16.5782 2.12786C16.0762 2.71858 15.6958 3.4058 15.4595 4.14883C15.2232 4.89185 15.1359 5.67556 15.2026 6.45357C15.9813 6.46017 16.7512 6.28432 17.4525 5.93961C18.1538 5.5949 18.7678 5.09059 19.2468 4.4657ZM22.7134 14.881C22.7226 13.8083 23.0002 12.7557 23.5201 11.8225C24.04 10.8893 24.785 10.1063 25.6847 9.54737C25.1169 8.71476 24.3662 8.02823 23.4923 7.54224C22.6184 7.05625 21.6452 6.78416 20.65 6.74755C18.504 6.52357 16.5231 8.02147 15.3814 8.02147C14.2396 8.02147 12.6302 6.77555 10.8419 6.80355C9.67279 6.84274 8.53363 7.18962 7.53553 7.81034C6.53742 8.43107 5.71444 9.30446 5.14686 10.3453C2.72579 14.629 4.52784 20.9986 6.9489 24.4564C8.04939 26.1503 9.425 28.0681 11.2408 27.9981C13.0566 27.9281 13.6481 26.8502 15.7528 26.8502C17.8575 26.8502 18.504 27.9981 20.2923 27.9561C22.0806 27.9141 23.3462 26.2203 24.5017 24.5264C25.3202 23.2966 25.9596 21.9528 26.4 20.5366C25.3098 20.0635 24.3797 19.2757 23.7245 18.2706C23.0693 17.2655 22.7178 16.0871 22.7134 14.881Z" fill="white"/>
</g>
</svg>
