<svg width="30" height="30" viewBox="0 0 30 30" fill="none" xmlns="http://www.w3.org/2000/svg">
<g id="mdi:spotify">
<path id="Vector" d="M22.375 13.625C18.375 11.25 11.6875 11 7.875 12.1875C7.25 12.375 6.625 12 6.4375 11.4375C6.25 10.8125 6.625 10.1875 7.1875 10C11.625 8.6875 18.9375 8.9375 23.5625 11.6875C24.125 12 24.3125 12.75 24 13.3125C23.6875 13.75 22.9375 13.9375 22.375 13.625ZM22.25 17.125C21.9375 17.5625 21.375 17.75 20.9375 17.4375C17.5625 15.375 12.4375 14.75 8.5 16C8 16.125 7.4375 15.875 7.3125 15.375C7.1875 14.875 7.4375 14.3125 7.9375 14.1875C12.5 12.8125 18.125 13.5 22 15.875C22.375 16.0625 22.5625 16.6875 22.25 17.125ZM20.75 20.5625C20.5 20.9375 20.0625 21.0625 19.6875 20.8125C16.75 19 13.0625 18.625 8.6875 19.625C8.25 19.75 7.875 19.4375 7.75 19.0625C7.625 18.625 7.9375 18.25 8.3125 18.125C13.0625 17.0625 17.1875 17.5 20.4375 19.5C20.875 19.6875 20.9375 20.1875 20.75 20.5625ZM15 2.5C13.3585 2.5 11.733 2.82332 10.2165 3.45151C8.69989 4.07969 7.3219 5.00043 6.16117 6.16117C3.81696 8.50537 2.5 11.6848 2.5 15C2.5 18.3152 3.81696 21.4946 6.16117 23.8388C7.3219 24.9996 8.69989 25.9203 10.2165 26.5485C11.733 27.1767 13.3585 27.5 15 27.5C18.3152 27.5 21.4946 26.183 23.8388 23.8388C26.183 21.4946 27.5 18.3152 27.5 15C27.5 13.3585 27.1767 11.733 26.5485 10.2165C25.9203 8.69989 24.9996 7.3219 23.8388 6.16117C22.6781 5.00043 21.3001 4.07969 19.7835 3.45151C18.267 2.82332 16.6415 2.5 15 2.5Z" fill="white"/>
</g>
</svg>
