<svg width="30" height="30" viewBox="0 0 30 30" fill="none" xmlns="http://www.w3.org/2000/svg">
<g id="ri:youtube-fill">
<path id="Vector" d="M15.305 5C15.9725 5.00375 17.6425 5.02 19.4175 5.09125L20.0475 5.11875C21.8337 5.2025 23.6187 5.3475 24.505 5.59375C25.6863 5.92625 26.6138 6.89375 26.9275 8.12125C27.4275 10.0712 27.49 13.8738 27.4975 14.795L27.4988 14.985V15.2025C27.49 16.1237 27.4275 19.9275 26.9275 21.8762C26.61 23.1075 25.6812 24.0763 24.505 24.4038C23.6187 24.65 21.8337 24.795 20.0475 24.8787L19.4175 24.9075C17.6425 24.9775 15.9725 24.995 15.305 24.9975L15.0112 24.9988H14.6925C13.28 24.99 7.3725 24.9263 5.4925 24.4038C4.3125 24.0713 3.38375 23.1038 3.07 21.8762C2.57 19.9262 2.5075 16.1237 2.5 15.2025V14.795C2.5075 13.8738 2.57 10.07 3.07 8.12125C3.3875 6.89 4.31625 5.92125 5.49375 5.595C7.3725 5.07125 13.2812 5.0075 14.6938 5H15.305ZM12.4987 10.625V19.375L19.9987 15L12.4987 10.625Z" fill="white"/>
</g>
</svg>
